<?xml version="1.0" encoding="UTF-8" standalone="no"?>
<!-- Created with Inkscape (http://www.inkscape.org/) -->

<svg
   width="210mm"
   height="297mm"
   viewBox="0 0 210 297"
   version="1.1"
   id="svg5"
   xml:space="preserve"
   inkscape:version="1.2 (1:1.2+202206011327+fc4e4096c5)"
   sodipodi:docname="defaultprofile.svg"
   xmlns:inkscape="http://www.inkscape.org/namespaces/inkscape"
   xmlns:sodipodi="http://sodipodi.sourceforge.net/DTD/sodipodi-0.dtd"
   xmlns="http://www.w3.org/2000/svg"
   xmlns:svg="http://www.w3.org/2000/svg"><sodipodi:namedview
     id="namedview7"
     pagecolor="#505050"
     bordercolor="#eeeeee"
     borderopacity="1"
     inkscape:showpageshadow="0"
     inkscape:pageopacity="0"
     inkscape:pagecheckerboard="0"
     inkscape:deskcolor="#505050"
     inkscape:document-units="mm"
     showgrid="false"
     inkscape:zoom="0.3732674"
     inkscape:cx="-500.98133"
     inkscape:cy="550.54366"
     inkscape:window-width="1920"
     inkscape:window-height="1015"
     inkscape:window-x="0"
     inkscape:window-y="0"
     inkscape:window-maximized="1"
     inkscape:current-layer="layer1" /><defs
     id="defs2" /><g
     inkscape:label="Layer 1"
     inkscape:groupmode="layer"
     id="layer1"><path
       style="fill:#c8c4b7;stroke-width:0.264583"
       d="m 101.96448,147.42849 c 0.39441,-0.73696 1.12846,-1.26105 2.44658,-1.74679 l 1.22213,-0.45037 0.81089,-0.89111 0.81088,-0.8911 -0.51166,-0.1338 -0.51167,-0.13381 v -0.40603 c 0,-0.73853 2.20639,-1.27176 5.29113,-1.27873 0.94558,-0.002 1.92709,-0.11511 2.18112,-0.25107 l 0.46186,-0.24718 0.29714,-1.18003 0.29713,-1.18002 1.04574,-1.18802 1.04573,-1.18802 1.63539,-0.77519 c 0.89946,-0.42635 2.15089,-0.9119 2.78095,-1.07901 l 1.14557,-0.30382 -0.17629,-2.03465 c -0.27026,-3.11933 -0.92293,-4.99256 -2.35887,-6.77021 -0.48216,-0.5969 -1.02564,-1.37184 -1.20773,-1.72209 l -0.33109,-0.63683 -0.12254,-3.99338 -0.12254,-3.99338 -0.41153,-1.30242 -0.41152,-1.30242 -0.0297,-3.59237 -0.0297,-3.59238 1.13699,-2.2834 1.137,-2.28341 1.59598,-1.620941 c 1.86255,-1.89165 3.10616,-2.775787 5.65503,-4.020385 l 1.85208,-0.90436 1.5875,0.02461 1.5875,0.02461 1.16539,0.596949 1.16538,0.596948 2.80337,-0.166031 2.80336,-0.166032 1.5875,1.458321 c 0.87313,0.80208 1.65924,1.46029 1.74691,1.4627 0.0877,0.002 0.72092,0.7191 1.40722,1.59264 l 1.2478,1.588261 0.94875,2.70334 0.94875,2.70334 -0.3194,2.74773 -0.3194,2.74773 0.3154,3.69974 0.31539,3.69974 -0.33233,1.49791 c -0.43633,1.96666 -0.89821,2.82509 -1.80975,3.36355 l -0.74816,0.44195 -0.32769,0.83058 -0.32769,0.83058 -0.15422,2.57282 -0.15423,2.57282 0.31241,0.37643 0.31241,0.37643 0.50163,-0.13118 0.50164,-0.13118 1.37614,0.74899 1.37614,0.74899 1.12597,1.38224 c 0.61928,0.76024 1.38809,1.92371 1.70846,2.58551 l 0.58249,1.20327 0.61494,0.15433 0.61495,0.15435 0.93236,-0.44243 c 0.51279,-0.24334 1.14796,-0.40133 1.41148,-0.35108 l 0.47913,0.0914 0.0907,0.63935 c 0.0499,0.35164 0.27126,0.91497 0.49199,1.25184 l 0.40131,0.61248 0.61918,-0.1554 0.61917,-0.15541 0.60863,0.63621 c 0.33474,0.34992 0.72769,0.84532 0.87321,1.10091 l 0.26458,0.4647 1.19063,0.14911 1.19062,0.14911 0.79375,0.59643 c 0.43657,0.32804 1.15094,1.08462 1.5875,1.6813 0.43657,0.59668 1.00211,1.15442 1.25678,1.23943 l 0.46302,0.15457 v 0.64362 0.64363 h -32.15619 -32.15618 l 0.24938,-0.46598 z"
       id="path189"
       inkscape:export-filename="defaultprofile.png"
       inkscape:export-xdpi="75"
       inkscape:export-ydpi="75" /></g></svg>
